<svg xmlns="http://www.w3.org/2000/svg" viewBox="0 0 512 512">
  <defs>
    <linearGradient id="bg" x1="0%" y1="0%" x2="100%" y2="100%">
      <stop offset="0%" style="stop-color:#0a0e14"/>
      <stop offset="100%" style="stop-color:#1a1f2e"/>
    </linearGradient>
    <linearGradient id="accent" x1="0%" y1="0%" x2="100%" y2="100%">
      <stop offset="0%" style="stop-color:#00d4ff"/>
      <stop offset="100%" style="stop-color:#0099cc"/>
    </linearGradient>
  </defs>
  <rect width="512" height="512" rx="100" fill="url(#bg)"/>
  <g fill="url(#accent)">
    <!-- Location pin -->
    <path d="M256 80c-66.3 0-120 53.7-120 120 0 90 120 200 120 200s120-110 120-200c0-66.3-53.7-120-120-120zm0 160c-22.1 0-40-17.9-40-40s17.9-40 40-40 40 17.9 40 40-17.9 40-40 40z"/>
    <!-- Crosshair lines -->
    <rect x="246" y="400" width="20" height="60" rx="10"/>
    <rect x="100" y="190" width="60" height="20" rx="10"/>
    <rect x="352" y="190" width="60" height="20" rx="10"/>
  </g>
</svg>
